# AST/ASF file generated using VICON BodyLanguage
# -----------------------------------------------
:version 1.10
:name VICON
:units
  mass 1.0
  length 0.45
  angle deg
:documentation
   .ast/.asf automatically generated from VICON data using
   VICON BodyBuilder and BodyLanguage model FoxedUp or BRILLIANT.MOD
:root
   order TX TY TZ RX RY RZ
   axis XYZ
   position 0 0 0  
   orientation 0 0 0 
:bonedata
  begin
     id 1 
     name lhipjoint
     direction 0.547975 -0.797114 0.253638 
     length 2.36201 
     axis 0 0 0  XYZ
  end
  begin
     id 2 
     name lfemur
     direction 0.34202 -0.939693 0  
     length 7.69075  
     axis 0 0 20  XYZ
    dof rx ry rz
    limits (-160.0 20.0)
           (-70.0 70.0)
           (-60.0 70.0)
  end
  begin
     id 3 
     name ltibia
     direction 0.34202 -0.939693 0   
     length 7.91399   
     axis 0 0 20   XYZ
    dof rx
    limits (-10.0 170.0)
  end
  begin
     id 4 
     name lfoot
     direction 0.0705293 -0.193778 0.978507   
     length 2.13618   
     axis -90 7.62852e-016 20   XYZ
    dof rx rz
    limits (-45.0 90.0)
           (-70.0 20.0)
  end
  begin
     id 5 
     name ltoes
     direction 1.53592e-011 -4.21925e-011 1   
     length 1.07518   
     axis -90 7.62852e-016 20   XYZ
    dof rx
    limits (-90.0 20.0)
  end
  begin
     id 6 
     name rhipjoint
     direction -0.57 -0.782963 0.249136   
     length 2.4047  
     axis 0 0 0  XYZ 
  end
  begin
     id 7 
     name rfemur
     direction -0.34202 -0.939693 0   
     length 7.51486   
     axis 0 0 -20   XYZ
    dof rx ry rz
    limits (-160.0 20.0)
           (-70.0 70.0)
           (-70.0 60.0)
  end
  begin
     id 8 
     name rtibia
     direction -0.34202 -0.939693 0   
     length 8.08317   
     axis 0 0 -20   XYZ
    dof rx
    limits (-10.0 170.0)
 end
 begin
     id 9 
     name rfoot
     direction -0.104954 -0.281256 0.953876   
     length 2.30343  
     axis -90 -7.62852e-016 -20   XYZ
    dof rx rz
    limits (-45.0 90.0)
           (-20.0 70.0)
  end
  begin
     id 10 
     name rtoes
     direction -1.53556e-011 -4.21922e-011 1   
     length 1.14803   
     axis -90 -7.62852e-016 -20   XYZ
    dof rx
    limits (-90.0 20.0)
  end
  begin
     id 11 
     name lowerback
     direction -0.0152855 0.99353 -0.11254   
     length 2.05311   
     axis 0 0 0   XYZ
    dof rx ry rz
    limits (-20.0 45.0)
           (-30.0 30.0)
           (-30.0 30.0)
  end
  begin
     id 12 
     name upperback
     direction -0.00157509 0.999443 -0.033332   
     length 2.06353   
     axis 0 0 0   XYZ
    dof rx ry rz
    limits (-20.0 45.0)
           (-30.0 30.0)
           (-30.0 30.0)
  end
  begin
     id 13 
     name thorax
     direction 0.00577788 0.999804 0.0189484   
     length 2.08472   
     axis 0 0 0   XYZ
    dof rx ry rz
    limits (-20.0 45.0)
           (-30.0 30.0)
           (-30.0 30.0)
  end
  begin
     id 14 
     name lowerneck
     direction -1.09301e-005 0.994719 0.10264   
     length 1.76249   
     axis 0 0 0   XYZ
    dof rx ry rz
    limits (-20.0 45.0)
           (-30.0 30.0)
           (-30.0 30.0)
  end
  begin
     id 15 
     name upperneck
     direction 0.0495018 0.988526 -0.142706   
     length 1.77897   
     axis 0 0 0   XYZ
    dof rx ry rz
    limits (-20.0 45.0)
           (-30.0 30.0)
           (-30.0 30.0)
  end
  begin
     id 16
     name head
     direction 0.0142736 0.998114 -0.0597101  
     length 1.78934  
     axis 0 0 0   XYZ
    dof rx ry rz
    limits (-20.0 45.0)
           (-30.0 30.0)
           (-30.0 30.0)
  end
  begin
     id 17 
     name lclavicle
     direction 0.918111 0.396107 -0.0130883  
     length 3.37276  
     axis 0 0 0   XYZ
    dof ry rz
    limits (-20.0 10.0)
           (0.0 20.0)
  end
  begin
     id 18 
     name lhumerus
     direction 1 -4.48975e-011 -3.26108e-027   
     length 5.34298   
     axis 180 -30 -90   XYZ
    dof rx ry rz
    limits (-60.0 90.0)
           (-90.0 90.0)
           (-90.0 90.0)
  end
  begin
     id 19
     name lradius
     direction 1 -4.48964e-011 -8.84413e-028   
     length 3.67262   
     axis 180 -30 -90   XYZ
    dof rx
    limits (-10.0 170.0)
  end
  begin
     id 20
     name lwrist
     direction 1 -4.48991e-011 -1.24264e-027   
     length 1.83631   
     axis -2.17013e-015 90 90   XYZ
    dof ry
    limits (-180.0 0.0)
 end
  begin
     id 21 
     name lhand
     direction 1 -4.48855e-011 -2.48528e-027   
     length 0.599298   
     axis 1.58582e-015 90 90   XYZ
    dof rx rz
    limits (-90.0 90.0)
           (-45.0 45.0)
  end
  begin
     id 22 
     name lfingers
     direction 1 -4.48811e-011 -4.97056e-027   
     length 0.48317   
     axis 3.17164e-015 90 90   XYZ
    dof rx
    limits (0.0 90.0)
  end
  begin
     id 23
     name lthumb
     direction 0.707107 -6.34882e-011 0.707107   
     length 0.693738   
     axis -90 45 2.85299e-015   XYZ
    dof rx rz
    limits (-45.0 45.0)
           (-45.0 45.0)
  end
  begin
     id 24 
     name rclavicle
     direction -0.920511 0.384752 -0.0680135   
     length 3.43787  
     axis 0 0 0   XYZ 
    dof ry rz
    limits (-10.0 20.0)
           (-20.0 0.0)
  end
  begin
     id 25 
     name rhumerus
     direction -0.999976 -0.00330524 0.00603274  
     length 5.5498   
     axis 180 30 90   XYZ
    dof rx ry rz
    limits (-90.0 60.0)
           (-90.0 90.0)
           (-90.0 90.0)
  end
  begin
     id 26 
     name rradius
     direction -1 -4.48967e-011 8.62438e-027   
     length 3.69401   
     axis 180 30 90   XYZ
    dof rx
    limits (-10.0 170.0)
  end
  begin
     id 27 
     name rwrist
     direction -1 -4.4897e-011 9.54866e-027   
     length 1.84701   
     axis -7.69462e-015 -90 -90   XYZ
    dof ry
    limits (-180.0 0.0)
  end
  begin
     id 28
     name rhand
     direction -1 -4.48982e-011 1.90973e-026   
     length 0.638113   
     axis -1.21857e-014 -90 -90   XYZ
    dof rx rz
    limits (-90.0 90.0)
           (-45.0 45.0)
  end
  begin
     id 29
     name rfingers
     direction -1 -4.48936e-011 3.81946e-026   
     length 0.514463   
     axis -2.43714e-014 -90 -90   XYZ
    dof rx
    limits (0.0 90.0)
  end
  begin
     id 30
     name rthumb
     direction -0.707107 -6.34942e-011 0.707107   
     length 0.738669   
     axis -90 -45 -2.85299e-015   XYZ
    dof rx rz
    limits (-45.0 45.0)
           (-45.0 45.0)
  end
:hierarchy
  begin
    root lhipjoint rhipjoint lowerback
    lhipjoint lfemur
    lfemur ltibia
    ltibia lfoot
    lfoot ltoes
    rhipjoint rfemur
    rfemur rtibia
    rtibia rfoot
    rfoot rtoes
    lowerback upperback
    upperback thorax
    thorax lowerneck lclavicle rclavicle
    lowerneck upperneck
    upperneck head
    lclavicle lhumerus
    lhumerus lradius
    lradius lwrist
    lwrist lhand lthumb
    lhand lfingers
    rclavicle rhumerus
    rhumerus rradius
    rradius rwrist
    rwrist rhand rthumb
    rhand rfingers
  end

#!OML:ASF F:\twosubjects\two\Thursday\Session 1\Rory.ASF
:FULLY-SPECIFIED
:DEGREES
49
root 7.50128 10.8137 7.19782 173.66 -5.50801 -179.972
lowerback 31.3722 1.0711 -0.748661
upperback 9.4856 -1.57258 -1.42644
thorax -6.46033 -1.81336 -0.482983
lowerneck -14.318 -4.69723 -5.70335
upperneck 0.0338814 -6.09294 8.77704
head 2.75347 -2.8855 3.18058
rclavicle -2.06736e-014 -4.13472e-014
rhumerus 21.4939 14.2426 -76.2302
rradius 76.8572
rwrist 24.819
rhand -13.6073 22.703
rfingers 7.12502
rthumb 12.5077 -6.90269
lclavicle -2.06736e-014 -4.13472e-014
lhumerus 36.486 -23.6176 64.1686
lradius 65.807
lwrist -17.3107
lhand -9.7948 35.8062
lfingers 7.12502
lthumb 16.1812 65.1508
rfemur -66.9706 -18.9549 -7.00476
rtibia 109.432
rfoot -22.124 -3.15707
rtoes -20.4832
lfemur -63.1373 26.9349 4.88478
ltibia 113.336
lfoot -27.9918 -5.54185
ltoes -16.4897
50
root 7.50082 10.8118 7.19721 173.631 -5.53893 -180.059
lowerback 31.3841 1.03801 -0.887885
upperback 9.36463 -1.61451 -1.33916
thorax -6.59931 -1.81889 -0.287637
lowerneck -13.8583 -4.5993 -5.68796
upperneck 0.0117044 -5.9422 8.47558
head 2.65256 -2.82145 3.10603
rclavicle -1.94809e-014 8.74653e-015
rhumerus 21.3161 14.5051 -76.2139
rradius 76.7864
rwrist 24.8073
rhand -13.1164 22.2928
rfingers 7.12502
rthumb 12.981 -7.28332
lclavicle -1.94809e-014 8.74653e-015
lhumerus 37.5184 -23.7946 63.5856
lradius 64.8643
lwrist -16.6231
lhand -10.2941 36.1648
lfingers 7.12502
lthumb 15.7005 65.5479
rfemur -66.9887 -19.0161 -7.12432
rtibia 109.5
rfoot -22.0897 -3.19744
rtoes -20.33
lfemur -63.1259 26.8937 4.7624
ltibia 113.34
lfoot -28.0179 -5.30605
ltoes -17.2005
51
root 7.50045 10.8068 7.19445 173.782 -5.59683 -180.193
lowerback 31.1976 0.931968 -1.12905
upperback 9.24422 -1.76441 -1.25753
thorax -6.64457 -1.87105 -0.0063795
lowerneck -13.684 -4.56898 -5.95564
upperneck 0.228254 -5.85336 8.46707
head 2.69181 -2.76862 3.15404
rclavicle 1.19271e-014 1.39149e-014
rhumerus 21.2641 14.955 -76.1932
rradius 76.7386
rwrist 24.7657
rhand -12.5991 22.1842
rfingers 7.12502
rthumb 13.4796 -7.35962
lclavicle 1.19271e-014 1.39149e-014
lhumerus 35.0224 -22.6347 66.2638
lradius 65.5223
lwrist -18.5992
lhand -10.3832 34.8871
lfingers 7.12502
lthumb 15.6146 64.2769
rfemur -67.1354 -19.2332 -7.20641
rtibia 109.505
rfoot -21.9839 -3.50157
rtoes -21.8256
lfemur -63.3853 26.922 4.47536
ltibia 113.37
lfoot -28.0174 -4.94524
ltoes -18.2903
52
root 7.50085 10.8045 7.19284 173.858 -5.59881 -180.239
lowerback 31.0722 0.87193 -1.21218
upperback 9.19726 -1.83844 -1.21986
thorax -6.63711 -1.89777 0.107345
lowerneck -13.3681 -4.57252 -6.21891
upperneck 0.133678 -5.82979 8.66257
head 2.62728 -2.75666 3.26419
rclavicle -1.98785e-015 7.95139e-016
rhumerus 21.1727 15.1786 -76.2721
rradius 76.7887
rwrist 24.7696
rhand -12.7776 22.3903
rfingers 7.12502
rthumb 13.3075 -7.1648
lclavicle -1.98785e-015 7.95139e-016
lhumerus 35.0623 -22.5982 65.9825
lradius 65.3808
lwrist -18.3631
lhand -10.7753 35.2459
lfingers 7.12502
lthumb 15.237 64.6648
rfemur -67.1621 -19.3206 -7.23509
rtibia 109.487
rfoot -22.0066 -3.37386
rtoes -21.4421
lfemur -63.4919 26.9675 4.40204
ltibia 113.392
lfoot -27.9617 -4.98969
ltoes -18.4133
53
root 7.5008 10.8083 7.19422 173.825 -5.65459 -180.292
lowerback 31.0726 0.882887 -1.0866
upperback 9.23782 -1.80356 -1.30133
thorax -6.59632 -1.88486 -0.0693543
lowerneck -13.1453 -4.5988 -6.07974
upperneck -0.157688 -5.897 8.74567
head 2.50918 -2.8014 3.26899
rclavicle 3.29983e-014 2.06736e-014
rhumerus 21.0504 14.8904 -76.4898
rradius 76.8389
rwrist 24.8334
rhand -13.3754 22.9173
rfingers 7.12502
rthumb 12.7313 -6.67458
lclavicle 3.29983e-014 2.06736e-014
lhumerus 35.43 -23.0228 65.2222
lradius 65.2557
lwrist -17.8906
lhand -10.95 35.4465
lfingers 7.12502
lthumb 15.0687 64.878
rfemur -67.0925 -19.389 -7.42476
rtibia 109.559
rfoot -22.1757 -2.58104
rtoes -18.7943
lfemur -63.4104 26.8545 4.37671
ltibia 113.374
lfoot -27.8743 -5.28718
ltoes -17.6655
54
root 7.50004 10.8098 7.19592 173.749 -5.70049 -180.352
lowerback 31.1161 0.93512 -0.882874
upperback 9.32548 -1.7108 -1.40118
thorax -6.52306 -1.85092 -0.331923
lowerneck -13.1601 -4.61201 -5.85764
upperneck -0.340833 -5.95127 8.73718
head 2.45376 -2.83673 3.22838
rclavicle 2.78299e-015 -1.59028e-014
rhumerus 21.0574 14.4416 -76.5938
rradius 76.8164
rwrist 24.8026
rhand -13.5339 23.3084
rfingers 7.12502
rthumb 12.5785 -6.29295
lclavicle 2.78299e-015 -1.59028e-014
lhumerus 35.1605 -23.2416 65.4818
lradius 65.6276
lwrist -17.8824
lhand -10.8842 35.1475
lfingers 7.12502
lthumb 15.132 64.5743
rfemur -66.9107 -19.4518 -7.59008
rtibia 109.547
rfoot -22.2677 -2.21836
rtoes -18.0282
lfemur -63.3215 26.7294 4.31471
ltibia 113.361
lfoot -27.9055 -5.25847
ltoes -17.568
55
root 7.49954 10.8023 7.19421 173.699 -5.67136 -180.278
lowerback 31.0522 0.97255 -0.659347
upperback 9.42028 -1.61437 -1.39891
thorax -6.38802 -1.81415 -0.495891
lowerneck -13.3864 -4.5993 -5.71536
upperneck -0.271292 -5.94519 8.57481
head 2.49899 -2.83367 3.15175
rclavicle -2.127e-014 -3.89618e-014
rhumerus 21.2526 14.2351 -76.4913
rradius 76.7553
rwrist 24.6241
rhand -13.4891 23.2934
rfingers 7.12502
rthumb 12.6217 -6.30531
lclavicle -2.127e-014 -3.89618e-014
lhumerus 35.6161 -23.5248 65.091
lradius 65.3887
lwrist -16.9832
lhand -11.1279 35.6538
lfingers 7.12502
lthumb 14.8973 65.0982
rfemur -66.7496 -19.4025 -7.46405
rtibia 109.421
rfoot -22.2195 -2.71132
rtoes -19.9465
lfemur -63.3223 26.7974 4.42446
ltibia 113.407
lfoot -28.0043 -5.12044
ltoes -18.0704
56
root 7.49894 10.7976 7.19187 173.617 -5.67476 -180.065
lowerback 30.983 0.995621 -0.29651
upperback 9.52971 -1.49576 -1.38881
thorax -6.2337 -1.76633 -0.739593
lowerneck -14.0087 -4.64375 -5.27194
upperneck 0.202462 -6.04932 8.18887
head 2.71782 -2.87327 2.93947
rclavicle -8.15017e-015 -5.56597e-015
rhumerus 21.4846 13.9642 -76.4087
rradius 76.634
rwrist 24.453
rhand -13.2514 23.2379
rfingers 7.12502
rthumb 12.8508 -6.34646
lclavicle -8.15017e-015 -5.56597e-015
lhumerus 35.9161 -23.6855 65.0885
lradius 65.3933
lwrist -16.6716
lhand -11.0983 36.3262
lfingers 7.12502
lthumb 14.9258 65.7684
rfemur -66.6661 -19.3044 -7.22568
rtibia 109.376
rfoot -22.1923 -3.09845
rtoes -21.0652
lfemur -63.2932 26.8927 4.71669
ltibia 113.438
lfoot -28.0169 -5.31832
ltoes -17.7078
57
root 7.49979 10.8009 7.19352 173.457 -5.68301 -179.799
lowerback 31.0349 0.971929 0.0447172
upperback 9.60308 -1.44147 -1.33851
thorax -6.17437 -1.74836 -0.899905
lowerneck -14.5326 -4.69445 -4.98205
upperneck 0.761305 -6.14464 7.91226
head 2.95513 -2.90262 2.78644
rclavicle 1.15295e-014 3.18055e-014
rhumerus 21.7053 13.8758 -76.3394
rradius 76.3535
rwrist 24.4886
rhand -13.0851 23.2861
rfingers 7.12502
rthumb 13.0112 -6.28817
lclavicle 1.15295e-014 3.18055e-014
lhumerus 36.2248 -23.7672 65.0289
lradius 65.1511
lwrist -16.7058
lhand -11.3346 36.3149
lfingers 7.12502
lthumb 14.6981 65.7738
rfemur -66.5417 -19.222 -6.97467
rtibia 109.389
rfoot -22.2577 -3.06584
rtoes -20.7775
lfemur -63.1466 26.9537 5.08328
ltibia 113.413
lfoot -27.9875 -5.58695
ltoes -17.2082
58
root 7.50146 10.8055 7.19747 173.243 -5.66286 -179.445
lowerback 31.1639 0.824923 0.334122
upperback 9.59305 -1.53388 -1.16858
thorax -6.24419 -1.79522 -0.841917
lowerneck -14.249 -4.68118 -5.28404
upperneck 0.652863 -6.07756 7.98083
head 2.88536 -2.87313 2.86707
rclavicle -5.76476e-015 -9.54166e-015
rhumerus 21.8428 14.3199 -76.1225
rradius 76.1573
rwrist 24.4685
rhand -13.8088 23.2266
rfingers 7.12502
rthumb 12.3134 -6.3908
lclavicle -5.76476e-015 -9.54166e-015
lhumerus 36.2957 -23.4831 65.0085
lradius 64.7829
lwrist -16.78
lhand -11.0692 36.2817
lfingers 7.12502
lthumb 14.9539 65.7218
rfemur -66.3492 -19.1187 -6.54857
rtibia 109.373
rfoot -22.3046 -3.36821
rtoes -21.5245
lfemur -62.9371 27.0096 5.58017
ltibia 113.376
lfoot -27.9961 -5.63895
ltoes -17.5403
